<svg id="Capa_1" enable-background="new 0 0 512 512" height="50" viewBox="0 0 512 512" width="50" xmlns="http://www.w3.org/2000/svg"><g><path d="m191 497v-104.188h130v104.188z" fill="#b46e3d"/><path d="m256 392.812h65v104.188h-65z" fill="#8e4712"/><path d="m256 450c-34.367 0-65.639-18.635-82.348-47.762-11.812 5.109-24.579 7.762-37.652 7.762-52.383 0-95-42.617-95-95 0-38.854 23.292-73.404 59.338-88.021 1.791-.726 3.705-1.1 5.637-1.1h300.05c1.932 0 3.846.374 5.637 1.1 36.046 14.617 59.338 49.167 59.338 88.021 0 52.383-42.617 95-95 95-13.073 0-25.84-2.653-37.652-7.762-16.709 29.127-47.981 47.762-82.348 47.762z" fill="#8ee26b"/><path d="m411.662 226.979c-1.791-.726-3.705-1.1-5.637-1.1h-150.025v224.121c34.367 0 65.639-18.635 82.348-47.762 11.812 5.109 24.579 7.762 37.652 7.762 52.383 0 95-42.617 95-95 0-38.854-23.292-73.404-59.338-88.021z" fill="#00a763"/><path d="m376 512h-240c-8.284 0-15-6.716-15-15s6.716-15 15-15h240c8.284 0 15 6.716 15 15s-6.716 15-15 15z" fill="#8ee26b"/><path d="m376 482h-120v30h120c8.284 0 15-6.716 15-15s-6.716-15-15-15z" fill="#00a763"/><path d="m256 330c-17.452 0-34.221-5.263-48.492-15.219-10.091-7.04-18.442-16.062-24.615-26.506-5.569 1.147-11.216 1.725-16.893 1.725-46.869 0-85-38.131-85-85 0-35.778 22.674-67.921 56.42-79.984 1.62-.579 3.328-.875 5.049-.875h227.062c1.721 0 3.429.296 5.049.875 33.746 12.063 56.42 44.206 56.42 79.984 0 46.869-38.131 85-85 85-5.677 0-11.324-.578-16.893-1.725-6.173 10.445-14.524 19.466-24.615 26.506-14.271 9.956-31.04 15.219-48.492 15.219z" fill="#00a763"/><path d="m374.58 125.016c-1.62-.579-3.328-.875-5.049-.875h-113.531v205.859c17.452 0 34.221-5.263 48.492-15.219 10.091-7.04 18.442-16.062 24.615-26.506 5.569 1.147 11.216 1.725 16.893 1.725 46.869 0 85-38.131 85-85 0-35.778-22.674-67.921-56.42-79.984z" fill="#007845"/><path d="m256 210c-23.308 0-44.129-12.264-55.614-31.69-4.735 1.125-9.542 1.69-14.386 1.69-35.841 0-65-29.159-65-65 0-32.864 23.41-63.279 67.699-87.956 31.184-17.376 61.948-26.121 63.242-26.484 2.654-.746 5.463-.746 8.117 0 1.294.364 32.059 9.109 63.242 26.484 44.29 24.677 67.7 55.092 67.7 87.956 0 35.841-29.159 65-65 65-4.845 0-9.651-.566-14.386-1.69-11.485 19.426-32.306 31.69-55.614 31.69z" fill="#8ee26b"/><path d="m311.614 178.31c4.735 1.125 9.542 1.69 14.386 1.69 35.841 0 65-29.159 65-65 0-32.864-23.41-63.279-67.699-87.956-31.184-17.376-61.948-26.121-63.242-26.484-1.328-.373-2.693-.56-4.059-.56v210c23.308 0 44.129-12.264 55.614-31.69z" fill="#00a763"/></g></svg>